<svg xmlns="http://www.w3.org/2000/svg" viewBox="0 0 32 32"><title>Artboard-2</title><g id="sun"><path d="M23,16a6.9775,6.9775,0,0,1-3.95,6.29A6.8081,6.8081,0,0,1,16,23a6.9918,6.9918,0,0,1-4.17-12.61A6.9,6.9,0,0,1,16,9,7.0077,7.0077,0,0,1,23,16Z" style="fill:#f9ef78"/><path d="M16,7a1,1,0,0,0,1-1V3a1,1,0,0,0-2,0V6A1,1,0,0,0,16,7Z" style="fill:#f9ef78"/><path d="M8.2217,9.6357a1,1,0,0,0,1.414-1.414L7.5146,6.1006a1,1,0,0,0-1.414,1.414Z" style="fill:#e8da5b"/><path d="M7,16a1,1,0,0,0-1-1H3a1,1,0,0,0,0,2H6A1,1,0,0,0,7,16Z" style="fill:#e8da5b"/><path d="M8.2217,22.3643,6.1006,24.4854a1,1,0,0,0,1.414,1.414l2.1211-2.1211a1,1,0,0,0-1.414-1.414Z" style="fill:#e8da5b"/><path d="M16,25a1,1,0,0,0-1,1v3a1,1,0,0,0,2,0V26A1,1,0,0,0,16,25Z" style="fill:#e8da5b"/><path d="M23.7783,22.3643a1,1,0,0,0-1.414,1.414l2.1211,2.1211a1,1,0,0,0,1.414-1.414Z" style="fill:#f9ef78"/><path d="M29,15H26a1,1,0,0,0,0,2h3a1,1,0,0,0,0-2Z" style="fill:#f9ef78"/><path d="M23.7783,9.6357l2.1211-2.1211a1,1,0,1,0-1.414-1.414L22.3643,8.2217a1,1,0,0,0,1.414,1.414Z" style="fill:#f9ef78"/><path d="M19.05,22.29A6.8081,6.8081,0,0,1,16,23a6.9918,6.9918,0,0,1-4.17-12.61A27.4047,27.4047,0,0,0,19.05,22.29Z" style="fill:#e8da5b"/></g></svg>