<svg xmlns="http://www.w3.org/2000/svg" viewBox="0 0 32 32"><title>Artboard-3</title><g id="cloud_sun" data-name="cloud sun"><path d="M4,13H3a1,1,0,0,0,0,2H4a1,1,0,0,0,0-2Z" style="fill:#dbc949"/><path d="M19.0713,6.9292a1,1,0,0,0-1.4141,0l-.707.707A1,1,0,1,0,18.3643,9.05l.707-.707A1,1,0,0,0,19.0713,6.9292Z" style="fill:#f9ef78"/><path d="M12,7a1,1,0,0,0,1-1V5a1,1,0,0,0-2,0V6A1,1,0,0,0,12,7Z" style="fill:#f9ef78"/><path d="M7.05,9.05a1,1,0,0,0,0-1.4141l-.707-.707A1,1,0,0,0,4.9292,8.3433l.707.707A1,1,0,0,0,7.05,9.05Z" style="fill:#dbc949"/><path d="M12,8a6.0006,6.0006,0,0,0-1.1978,11.88A1,1,0,0,0,12,18.9155,5.03,5.03,0,0,1,16.9155,14a1,1,0,0,0,.9644-1.1978A6.0106,6.0106,0,0,0,12,8Z" style="fill:#f9ef78"/><path d="M12.4,17.04a4.9048,4.9048,0,0,0-.4,1.88.9974.9974,0,0,1-.37.76,1.0264,1.0264,0,0,1-.63.22,1.3552,1.3552,0,0,1-.2-.02,5.9991,5.9991,0,0,1,.18-11.79A36.9235,36.9235,0,0,0,12.4,17.04Z" style="fill:#dbc949"/><path d="M24,16a5.8559,5.8559,0,0,0-.6533.0366,7.0035,7.0035,0,0,0-13.2876,2.0523A5,5,0,0,0,11,28H24a6,6,0,0,0,0-12Z" style="fill:#e6ecff"/><path d="M21.34,28H11a5,5,0,0,1-.94-9.91,6.8939,6.8939,0,0,1,1.68-3.69C12.85,19.78,15.44,25.7,21.34,28Z" style="fill:#b7c6e2"/><path d="M26,19a1,1,0,0,1-2,0,7.2926,7.2926,0,0,0-.33-2.15,7.1789,7.1789,0,0,0-.32-.81A4.6316,4.6316,0,0,1,24,16a5.7585,5.7585,0,0,1,1.56.21c0,.01.01.03.01.04A9.0182,9.0182,0,0,1,26,19Z" style="fill:#d0dbf7"/><path d="M15.45,18.86a1.0039,1.0039,0,0,1-1.41.18,4.9611,4.9611,0,0,0-3.98-.95,6.6085,6.6085,0,0,1,.61-2.07A1.8287,1.8287,0,0,1,11,16a6.8773,6.8773,0,0,1,4.27,1.46A1.0021,1.0021,0,0,1,15.45,18.86Z" style="fill:#d0dbf7"/><path d="M12.84,18.35A4.975,4.975,0,0,0,11,18a4.91,4.91,0,0,0-.94.09,6.6085,6.6085,0,0,1,.61-2.07A1.8287,1.8287,0,0,1,11,16a7.079,7.079,0,0,1,1.13.09C12.34,16.85,12.57,17.6,12.84,18.35Z" style="fill:#8ea6ce"/></g></svg>