<svg xmlns="http://www.w3.org/2000/svg" viewBox="0 0 32 32"><title>Artboard-4</title><g id="cloud_moon-2" data-name="cloud moon"><path d="M24,17a5.8559,5.8559,0,0,0-.6533.0366,7.0035,7.0035,0,0,0-13.2876,2.0523A5,5,0,0,0,11,29H24a6,6,0,0,0,0-12Z" style="fill:#e6ecff"/><path d="M20.27,29H11a5,5,0,0,1-.94-9.91,6.79,6.79,0,0,1,1.56-3.54C12.3,20.5,14.47,25.96,20.27,29Z" style="fill:#b7c6e2"/><path d="M15.45,19.86a1.0039,1.0039,0,0,1-1.41.18,4.9611,4.9611,0,0,0-3.98-.95,6.6085,6.6085,0,0,1,.61-2.07A1.8287,1.8287,0,0,1,11,17a6.8773,6.8773,0,0,1,4.27,1.46A1.0021,1.0021,0,0,1,15.45,19.86Z" style="fill:#d0dbf7"/><path d="M26,20a1,1,0,0,1-2,0,7.2926,7.2926,0,0,0-.33-2.15,7.1789,7.1789,0,0,0-.32-.81A4.6316,4.6316,0,0,1,24,17a5.7585,5.7585,0,0,1,1.56.21c0,.01.01.03.01.04A9.0182,9.0182,0,0,1,26,20Z" style="fill:#d0dbf7"/><path d="M12.41,19.2A5.1106,5.1106,0,0,0,11,19a4.91,4.91,0,0,0-.94.09,6.6085,6.6085,0,0,1,.61-2.07A1.8287,1.8287,0,0,1,11,17a6.2523,6.2523,0,0,1,.87.06A20.9465,20.9465,0,0,0,12.41,19.2Z" style="fill:#8ea6ce"/><path d="M8.3975,3.0239A1,1,0,0,0,7.3584,4.5713,4.0022,4.0022,0,0,1,4.09,10.88a3.8878,3.8878,0,0,1-.8662-.0947,1,1,0,0,0-1.039,1.5542A6.002,6.002,0,0,0,13.09,8.88,5.9652,5.9652,0,0,0,8.3975,3.0239Z" style="fill:#f9ef78"/></g></svg>