<svg xmlns="http://www.w3.org/2000/svg" viewBox="0 0 32 32"><title>Artboard-23</title><g id="clouds"><path d="M26.1338,10.5439A5.4551,5.4551,0,0,0,21,7a5.5286,5.5286,0,0,0-5.291,3.9834,1,1,0,0,0,.3515,1.0693,4.99,4.99,0,0,1,1.7081,2.4258,1.0016,1.0016,0,0,0,1.2177.6553A3.5606,3.5606,0,0,1,20,15a3.9738,3.9738,0,0,1,3.9746,3.5605,1,1,0,0,0,.8193.8838A4.0885,4.0885,0,0,0,25.5,19.5a4.5005,4.5005,0,0,0,.6338-8.9561Z" style="fill:#4294ff"/><path d="M30,15a4.5068,4.5068,0,0,1-4.5,4.5,4.1655,4.1655,0,0,1-.71-.06.9979.9979,0,0,1-.82-.88,3.9052,3.9052,0,0,0-3.12-3.46,22.531,22.531,0,0,0,5.29-4.56A4.505,4.505,0,0,1,30,15Z" style="fill:#2965ed"/><path d="M20,13a5.8559,5.8559,0,0,0-.6533.0366A7.0035,7.0035,0,0,0,6.0591,15.0889,5,5,0,0,0,7,25H20a6,6,0,0,0,0-12Z" style="fill:#e6ecff"/><path d="M26,19a6.0048,6.0048,0,0,1-6,6H7a5.0019,5.0019,0,0,1-4.99-4.77c10.17-.48,16.68-3.3,20.83-6.52A6.0227,6.0227,0,0,1,26,19Z" style="fill:#b7c6e2"/><path d="M11.45,15.86a1.0039,1.0039,0,0,1-1.41.18,4.9611,4.9611,0,0,0-3.98-.95,6.6085,6.6085,0,0,1,.61-2.07A1.8287,1.8287,0,0,1,7,13a6.8773,6.8773,0,0,1,4.27,1.46A1.0021,1.0021,0,0,1,11.45,15.86Z" style="fill:#d0dbf7"/><path d="M22,16a1,1,0,0,1-2,0,7.2926,7.2926,0,0,0-.33-2.15,7.1789,7.1789,0,0,0-.32-.81A4.6316,4.6316,0,0,1,20,13a5.7585,5.7585,0,0,1,1.56.21c0,.01.01.03.01.04A9.0182,9.0182,0,0,1,22,16Z" style="fill:#d0dbf7"/><path d="M22,16a1,1,0,0,1-2,0c0-.12,0-.25-.01-.38.66-.39,1.28-.79,1.86-1.19A8.3476,8.3476,0,0,1,22,16Z" style="fill:#8ea6ce"/></g></svg>