<svg xmlns="http://www.w3.org/2000/svg" viewBox="0 0 32 32"><title>Artboard-27</title><g id="Cloud_rain_sun" data-name="Cloud rain sun"><path d="M17.5171,9.62a6.0034,6.0034,0,1,0-8.5537,7.5518A.9942.9942,0,0,0,9.47,17.31a1.0046,1.0046,0,0,0,.39-.0791A2.8959,2.8959,0,0,1,11,17a1,1,0,0,0,1-1,4.9975,4.9975,0,0,1,4.6641-4.9824,1,1,0,0,0,.853-1.3975Z" style="fill:#f9ef78"/><path d="M12.29,14.34A4.8293,4.8293,0,0,0,12,16a1.0029,1.0029,0,0,1-1,1,2.9385,2.9385,0,0,0-1.14.23,1.0875,1.0875,0,0,1-.39.08,1.03,1.03,0,0,1-.51-.14A5.9925,5.9925,0,0,1,10.38,6.23,38.0089,38.0089,0,0,0,12.29,14.34Z" style="fill:#dbc949"/><path d="M4,13H3a1,1,0,0,1,0-2H4a1,1,0,0,1,0,2Z" style="fill:#dbc949"/><path d="M16.95,7.05a1,1,0,0,1,0-1.4141l.707-.707a1,1,0,1,1,1.4141,1.4141l-.707.707A1,1,0,0,1,16.95,7.05Z" style="fill:#f9ef78"/><path d="M12,5a1,1,0,0,1-1-1V3a1,1,0,0,1,2,0V4A1,1,0,0,1,12,5Z" style="fill:#f9ef78"/><path d="M5.6362,7.05l-.707-.707A1,1,0,0,1,6.3433,4.9287l.707.707A1,1,0,0,1,5.6362,7.05Z" style="fill:#dbc949"/><path d="M9.999,30a1,1,0,0,1-.8935-1.4473l1-2a1,1,0,0,1,1.789.8946l-1,2A1,1,0,0,1,9.999,30Z" style="fill:#4294ff"/><path d="M13.999,30a1,1,0,0,1-.8935-1.4473l1-2a1,1,0,0,1,1.789.8946l-1,2A1,1,0,0,1,13.999,30Z" style="fill:#4294ff"/><path d="M17.999,30a1,1,0,0,1-.8935-1.4473l1-2a1,1,0,1,1,1.789.8946l-1,2A1,1,0,0,1,17.999,30Z" style="fill:#4294ff"/><path d="M21.999,30a1,1,0,0,1-.8935-1.4473l1-2a1,1,0,1,1,1.789.8946l-1,2A1,1,0,0,1,21.999,30Z" style="fill:#4294ff"/><path d="M24,13a5.8559,5.8559,0,0,0-.6533.0366,7.0035,7.0035,0,0,0-13.2876,2.0523A5,5,0,0,0,11,25H24a6,6,0,0,0,0-12Z" style="fill:#e6ecff"/><path d="M26,16a1,1,0,0,1-2,0,7.2926,7.2926,0,0,0-.33-2.15,7.1789,7.1789,0,0,0-.32-.81A4.6316,4.6316,0,0,1,24,13a5.7585,5.7585,0,0,1,1.56.21c0,.01.01.03.01.04A9.0182,9.0182,0,0,1,26,16Z" style="fill:#d0dbf7"/><path d="M20.57,25H11a5,5,0,0,1-.94-9.91,6.78,6.78,0,0,1,1.4-3.35C12.84,16.78,15.49,22.17,20.57,25Z" style="fill:#b7c6e2"/><path d="M15.45,15.86a1.0039,1.0039,0,0,1-1.41.18,4.9611,4.9611,0,0,0-3.98-.95,6.6085,6.6085,0,0,1,.61-2.07A1.8287,1.8287,0,0,1,11,13a6.8773,6.8773,0,0,1,4.27,1.46A1.0021,1.0021,0,0,1,15.45,15.86Z" style="fill:#d0dbf7"/><path d="M12.65,15.28A4.8075,4.8075,0,0,0,11,15a4.91,4.91,0,0,0-.94.09,6.6085,6.6085,0,0,1,.61-2.07A1.8287,1.8287,0,0,1,11,13a7.92,7.92,0,0,1,.85.05C12.08,13.79,12.35,14.54,12.65,15.28Z" style="fill:#8ea6ce"/></g></svg>