<svg xmlns="http://www.w3.org/2000/svg" viewBox="0 0 32 32"><title>Artboard-28</title><g id="cloud_rain_moon" data-name="cloud rain moon"><path d="M24,12a5.8559,5.8559,0,0,0-.6533.0366,7.0035,7.0035,0,0,0-13.2876,2.0523A5,5,0,0,0,11,24H24a6,6,0,0,0,0-12Z" style="fill:#e6ecff"/><path d="M20.27,24H11a5,5,0,0,1-.94-9.91,6.79,6.79,0,0,1,1.56-3.54C12.3,15.5,14.47,20.96,20.27,24Z" style="fill:#b7c6e2"/><path d="M15.45,14.86a1.0039,1.0039,0,0,1-1.41.18,4.9611,4.9611,0,0,0-3.98-.95,6.6085,6.6085,0,0,1,.61-2.07A1.8287,1.8287,0,0,1,11,12a6.8773,6.8773,0,0,1,4.27,1.46A1.0021,1.0021,0,0,1,15.45,14.86Z" style="fill:#d0dbf7"/><path d="M26,15a1,1,0,0,1-2,0,7.2926,7.2926,0,0,0-.33-2.15,7.1789,7.1789,0,0,0-.32-.81A4.6316,4.6316,0,0,1,24,12a5.7585,5.7585,0,0,1,1.56.21c0,.01.01.03.01.04A9.0182,9.0182,0,0,1,26,15Z" style="fill:#d0dbf7"/><path d="M12.41,14.2A5.1106,5.1106,0,0,0,11,14a4.91,4.91,0,0,0-.94.09,6.6085,6.6085,0,0,1,.61-2.07A1.8287,1.8287,0,0,1,11,12a6.2523,6.2523,0,0,1,.87.06A20.9465,20.9465,0,0,0,12.41,14.2Z" style="fill:#8ea6ce"/><path d="M9.4453,29.832a1,1,0,0,1-.2773-1.3867l2-3a1,1,0,0,1,1.664,1.1094l-2,3A1,1,0,0,1,9.4453,29.832Z" style="fill:#4294ff"/><path d="M13.4453,29.832a1,1,0,0,1-.2773-1.3867l2-3a1,1,0,0,1,1.664,1.1094l-2,3A1,1,0,0,1,13.4453,29.832Z" style="fill:#4294ff"/><path d="M17.4453,29.832a1,1,0,0,1-.2773-1.3867l2-3a1,1,0,0,1,1.664,1.1094l-2,3A1,1,0,0,1,17.4453,29.832Z" style="fill:#4294ff"/><path d="M21.4453,29.832a.9993.9993,0,0,1-.2773-1.3867l2-3a1,1,0,0,1,1.664,1.1094l-2,3A1,1,0,0,1,21.4453,29.832Z" style="fill:#4294ff"/><path d="M7.08,2.0371a1,1,0,0,0-.9893,1.4873A2.9973,2.9973,0,0,1,3.127,7.9775a1.0156,1.0156,0,0,0-.9581.4356,1,1,0,0,0-.0376,1.0517A4.9992,4.9992,0,1,0,7.08,2.0371Z" style="fill:#f9ef78"/></g></svg>