<svg xmlns="http://www.w3.org/2000/svg" viewBox="0 0 32 32"><title>Artboard-13</title><g id="cloud_rain" data-name="cloud rain"><path d="M5.4453,25.832a1,1,0,0,1-.2773-1.3867l2-3a1,1,0,0,1,1.664,1.1094l-2,3A1,1,0,0,1,5.4453,25.832Z" style="fill:#4294ff"/><path d="M8.4453,28.832a1,1,0,0,1-.2773-1.3867l4-6a1,1,0,1,1,1.664,1.1094l-4,6A1,1,0,0,1,8.4453,28.832Z" style="fill:#4294ff"/><path d="M13.4453,28.832a1,1,0,0,1-.2773-1.3867l4-6a1,1,0,0,1,1.664,1.1094l-4,6A1,1,0,0,1,13.4453,28.832Z" style="fill:#4294ff"/><path d="M20.4453,25.832a.9993.9993,0,0,1-.2773-1.3867l2-3a1,1,0,0,1,1.664,1.1094l-2,3A1,1,0,0,1,20.4453,25.832Z" style="fill:#4294ff"/><path d="M22,7a5.8559,5.8559,0,0,0-.6533.0366A7.0035,7.0035,0,0,0,8.0591,9.0889,5,5,0,0,0,9,19H22A6,6,0,0,0,22,7Z" style="fill:#e6ecff"/><path d="M18.27,19H9a5,5,0,0,1-.94-9.91A6.79,6.79,0,0,1,9.62,5.55C10.3,10.5,12.47,15.96,18.27,19Z" style="fill:#b7c6e2"/><path d="M13.45,9.86a1.0039,1.0039,0,0,1-1.41.18,4.9611,4.9611,0,0,0-3.98-.95,6.6085,6.6085,0,0,1,.61-2.07A1.8287,1.8287,0,0,1,9,7a6.8773,6.8773,0,0,1,4.27,1.46A1.0021,1.0021,0,0,1,13.45,9.86Z" style="fill:#d0dbf7"/><path d="M24,10a1,1,0,0,1-2,0,7.2926,7.2926,0,0,0-.33-2.15,7.1789,7.1789,0,0,0-.32-.81A4.6316,4.6316,0,0,1,22,7a5.7585,5.7585,0,0,1,1.56.21c0,.01.01.03.01.04A9.0182,9.0182,0,0,1,24,10Z" style="fill:#d0dbf7"/><path d="M10.41,9.2A5.1106,5.1106,0,0,0,9,9a4.91,4.91,0,0,0-.94.09,6.6085,6.6085,0,0,1,.61-2.07A1.8287,1.8287,0,0,1,9,7a6.2523,6.2523,0,0,1,.87.06A20.9465,20.9465,0,0,0,10.41,9.2Z" style="fill:#8ea6ce"/></g></svg>