<svg xmlns="http://www.w3.org/2000/svg" viewBox="0 0 32 32"><title>Artboard-35</title><g id="Cloud_Thunder" data-name="Cloud Thunder"><path d="M15.8379,6.39A5.9986,5.9986,0,0,0,6,11a5.9643,5.9643,0,0,0,4.6924,5.8555.9729.9729,0,0,0,.2178.0244,1.0009,1.0009,0,0,0,.7158-1.6992,2.1832,2.1832,0,0,1-.5762-1.0616,2.3846,2.3846,0,0,1,.9531-2.4365.8255.8255,0,0,1,.1241-.0693.8164.8164,0,0,0,.1-.0518,2.1468,2.1468,0,0,1,.9981-.3135.9994.9994,0,0,0,.917-.7646A4.4624,4.4624,0,0,1,15.8,7.96a.9994.9994,0,0,0,.0381-1.57Z" style="fill:#f9ef78"/><path d="M12.82,11.32a2.0958,2.0958,0,0,0-.59.24.4671.4671,0,0,1-.1.05c-.05.02-.09.05-.13.07a2.411,2.411,0,0,0-.95,2.44,2.1042,2.1042,0,0,0,.58,1.06,1.0123,1.0123,0,0,1,.15,1.19.9923.9923,0,0,1-.87.51,1.6352,1.6352,0,0,1-.22-.02A6.0061,6.0061,0,0,1,9.71,5.45,34.4739,34.4739,0,0,0,12.82,11.32Z" style="fill:#dbc949"/><path d="M4,12H3a1,1,0,0,1,0-2H4a1,1,0,0,1,0,2Z" style="fill:#dbc949"/><path d="M4.9287,18.0713a1,1,0,0,1,0-1.4141l.707-.707A1,1,0,0,1,7.05,17.3643l-.707.707A1,1,0,0,1,4.9287,18.0713Z" style="fill:#dbc949"/><path d="M12,4a1,1,0,0,1-1-1V2a1,1,0,0,1,2,0V3A1,1,0,0,1,12,4Z" style="fill:#f9ef78"/><path d="M5.6357,6.05l-.707-.707A1,1,0,1,1,6.3428,3.9287l.707.707A1,1,0,1,1,5.6357,6.05Z" style="fill:#dbc949"/><path d="M29.9063,11.7666a5.3457,5.3457,0,0,0-5.2217-4.2285,6.5106,6.5106,0,0,0-.7637.0527A6.7169,6.7169,0,0,0,18.5693,5a3.2086,3.2086,0,0,0-.35.0127,6.6207,6.6207,0,0,0-5.8261,4.3457,4.2293,4.2293,0,0,0-1.126.4473,2.2771,2.2771,0,0,0-.3819.2256,4.379,4.379,0,0,0-1.7919,4.498A4.5379,4.5379,0,0,0,13.6025,18H24.6807a5.3364,5.3364,0,0,0,4.123-1.9258A5.2129,5.2129,0,0,0,29.9063,11.7666Z" style="fill:#e6ecff"/><path d="M18.92,18H13.6a4.5466,4.5466,0,0,1-4.51-3.47,4.3883,4.3883,0,0,1,1.8-4.5,1.9918,1.9918,0,0,1,.38-.22,2.9177,2.9177,0,0,1,.47-.23A30.1764,30.1764,0,0,0,18.92,18Z" style="fill:#b7c6e2"/><path d="M27.2959,19.5645a1,1,0,0,0-.9209-.61H21.6133l1.2392-5.7432a1,1,0,0,0-1.75-.8457l-8.25,10.0459a1,1,0,0,0,.7725,1.6348H17.5l-1.8262,5.6465a1,1,0,0,0,1.669,1.0039l9.75-10.0459A1.0011,1.0011,0,0,0,27.2959,19.5645Z" style="fill:#f9ef78"/><path d="M25.71,22.07,17.34,30.7a.9819.9819,0,0,1-.72.3,1.0588,1.0588,0,0,1-.51-.14,1.0124,1.0124,0,0,1-.44-1.17l1.83-5.64H13.62a1.0062,1.0062,0,0,1-.77-1.64l4.63-5.64A29.3184,29.3184,0,0,0,25.71,22.07Z" style="fill:#dbc949"/></g></svg>