<svg xmlns="http://www.w3.org/2000/svg" viewBox="0 0 32 32"><title>Artboard-36</title><g id="CLoud_moon" data-name="CLoud moon"><path d="M29.9053,11.66A5.5833,5.5833,0,0,0,24.314,7.3613c-.1333.01-.2652.0235-.3965.042a6.6248,6.6248,0,0,0-11.5591,1.81,4.4565,4.4565,0,0,0-3.2949,5.2559A4.5456,4.5456,0,0,0,13.5781,18H24.6748a5.33,5.33,0,0,0,5.23-6.34Z" style="fill:#e6ecff"/><path d="M6.3628,2.0107a.9688.9688,0,0,0-.88.4512,1.0018,1.0018,0,0,0-.0615.9873A2.4032,2.4032,0,0,1,5.66,4.5,2.51,2.51,0,0,1,3.1924,7.0088,1,1,0,0,0,2.0952,8.416,4.4962,4.4962,0,1,0,6.3628,2.0107Z" style="fill:#dbc949"/><path d="M16.87,18H13.58a4.5613,4.5613,0,0,1-4.52-3.53,4.4681,4.4681,0,0,1,3.3-5.26c.09-.25.19-.5.3-.73A27.8657,27.8657,0,0,0,16.87,18Z" style="fill:#b7c6e2"/><path d="M25.1216,19.5537a1,1,0,0,0-.9185-.6035H20.19l1.0493-4.8154a1,1,0,0,0-1.7613-.833L12.252,22.4326a1,1,0,0,0,.7841,1.62H16.25l-1.5351,4.6328a1,1,0,0,0,1.6767,1.001l8.54-9.05A1.0019,1.0019,0,0,0,25.1216,19.5537Z" style="fill:#f9ef78"/><path d="M22.85,22.85l-6.46,6.84a1.0139,1.0139,0,0,1-.73.31,1.0588,1.0588,0,0,1-.51-.14,1.0124,1.0124,0,0,1-.44-1.17l1.54-4.64H13.04a1.0024,1.0024,0,0,1-.79-1.62l4.1-5.18A14.4988,14.4988,0,0,0,22.85,22.85Z" style="fill:#dbc949"/></g></svg>