<svg xmlns="http://www.w3.org/2000/svg" viewBox="0 0 32 32"><title>Artboard-22</title><g id="Cloud_Snow" data-name="Cloud Snow"><path d="M9.5,27H8.707l.5606-.5605a.5.5,0,1,0-.7071-.7071L8,26.293V25.5a.5.5,0,0,0-1,0v.793L6.44,25.7324a.5.5,0,1,0-.7071.7071L6.293,27H5.5a.5.5,0,0,0,0,1h.793l-.5606.5605a.5.5,0,1,0,.7071.7071L7,28.707V29.5a.5.5,0,0,0,1,0v-.793l.56.5606a.5.5,0,1,0,.7071-.7071L8.707,28H9.5a.5.5,0,0,0,0-1Z" style="fill:#4294ff"/><path d="M15.5,27h-.793l.5606-.5605a.5.5,0,1,0-.7071-.7071L14,26.293V25.5a.5.5,0,0,0-1,0v.793l-.56-.5606a.5.5,0,1,0-.7071.7071L12.293,27H11.5a.5.5,0,0,0,0,1h.793l-.5606.5605a.5.5,0,1,0,.7071.7071L13,28.707V29.5a.5.5,0,0,0,1,0v-.793l.56.5606a.5.5,0,1,0,.7071-.7071L14.707,28H15.5a.5.5,0,0,0,0-1Z" style="fill:#4294ff"/><path d="M21.5,27h-.793l.5606-.5605a.5.5,0,1,0-.7071-.7071L20,26.293V25.5a.5.5,0,0,0-1,0v.793l-.5605-.5606a.5.5,0,1,0-.7071.7071L18.293,27H17.5a.5.5,0,0,0,0,1h.793l-.5606.5605a.5.5,0,1,0,.7071.7071L19,28.707V29.5a.5.5,0,0,0,1,0v-.793l.5605.5606a.5.5,0,1,0,.7071-.7071L20.707,28H21.5a.5.5,0,0,0,0-1Z" style="fill:#4294ff"/><path d="M11,24.5a.5.5,0,0,0,1,0v-.793l.56.5606a.5.5,0,1,0,.7071-.7071L12.707,23H13.5a.5.5,0,0,0,0-1h-.793l.5606-.5605a.5.5,0,1,0-.7071-.7071L12,21.293V20.5a.5.5,0,0,0-1,0v.793l-.56-.5606a.5.5,0,1,0-.7071.7071L10.293,22H9.5a.5.5,0,0,0,0,1h.793l-.5606.5605a.5.5,0,1,0,.7071.7071L11,23.707Z" style="fill:#4294ff"/><path d="M17,24.5a.5.5,0,0,0,1,0v-.793l.5605.5606a.5.5,0,1,0,.7071-.7071L18.707,23H19.5a.5.5,0,0,0,0-1h-.793l.5606-.5605a.5.5,0,1,0-.7071-.7071L18,21.293V20.5a.5.5,0,0,0-1,0v.793l-.5605-.5606a.5.5,0,1,0-.7071.7071L16.293,22H15.5a.5.5,0,0,0,0,1h.793l-.5606.5605a.5.5,0,1,0,.7071.7071L17,23.707Z" style="fill:#4294ff"/><path d="M25.5,22h-.793l.5606-.5605a.5.5,0,1,0-.7071-.7071L24,21.293V20.5a.5.5,0,0,0-1,0v.793l-.5605-.5606a.5.5,0,1,0-.7071.7071L22.293,22H21.5a.5.5,0,0,0,0,1h.793l-.5606.5605a.5.5,0,1,0,.7071.7071L23,23.707V24.5a.5.5,0,0,0,1,0v-.793l.5605.5606a.5.5,0,1,0,.7071-.7071L24.707,23H25.5a.5.5,0,0,0,0-1Z" style="fill:#4294ff"/><path d="M22,6a5.8559,5.8559,0,0,0-.6533.0366A7.0035,7.0035,0,0,0,8.0591,8.0889,5,5,0,0,0,9,18H22A6,6,0,0,0,22,6Z" style="fill:#e6ecff"/><path d="M18.27,18H9a5,5,0,0,1-.94-9.91A6.79,6.79,0,0,1,9.62,4.55C10.3,9.5,12.47,14.96,18.27,18Z" style="fill:#b7c6e2"/><path d="M13.45,8.86a1.0039,1.0039,0,0,1-1.41.18,4.9611,4.9611,0,0,0-3.98-.95,6.6085,6.6085,0,0,1,.61-2.07A1.8287,1.8287,0,0,1,9,6a6.8773,6.8773,0,0,1,4.27,1.46A1.0021,1.0021,0,0,1,13.45,8.86Z" style="fill:#d0dbf7"/><path d="M24,9a1,1,0,0,1-2,0,7.2926,7.2926,0,0,0-.33-2.15,7.1789,7.1789,0,0,0-.32-.81A4.6316,4.6316,0,0,1,22,6a5.7585,5.7585,0,0,1,1.56.21c0,.01.01.03.01.04A9.0182,9.0182,0,0,1,24,9Z" style="fill:#d0dbf7"/><path d="M10.41,8.2A5.1106,5.1106,0,0,0,9,8a4.91,4.91,0,0,0-.94.09,6.6085,6.6085,0,0,1,.61-2.07A1.8287,1.8287,0,0,1,9,6a6.2523,6.2523,0,0,1,.87.06A20.9465,20.9465,0,0,0,10.41,8.2Z" style="fill:#8ea6ce"/></g></svg>