<svg xmlns="http://www.w3.org/2000/svg" viewBox="0 0 32 32"><title>Artboard-30</title><g id="Cloud_Beach" data-name="Cloud Beach"><path d="M18.6787,9.2539a4.9972,4.9972,0,1,0-7.9258,5.5488,1.0029,1.0029,0,0,0,1.1631.0948,1.9025,1.9025,0,0,1,.8848-.2793,1,1,0,0,0,.914-.7725,4.2257,4.2257,0,0,1,3.8741-3.2422.6187.6187,0,0,1,.0849-.0039,1.04,1.04,0,0,0,.8867-.4277A.9987.9987,0,0,0,18.6787,9.2539Z" style="fill:#f9ef78"/><path d="M14,5a1,1,0,0,1-1-1V3a1,1,0,0,1,2,0V4A1,1,0,0,1,14,5Z" style="fill:#f9ef78"/><path d="M8.3428,6.7568,7.6357,6.05A1,1,0,1,1,9.05,4.6357l.707.7071a1,1,0,1,1-1.414,1.414Z" style="fill:#dbc949"/><path d="M7,12H6a1,1,0,0,1,0-2H7a1,1,0,0,1,0,2Z" style="fill:#dbc949"/><path d="M18.2432,6.7568a.9994.9994,0,0,1,0-1.414l.707-.7071A1,1,0,0,1,20.3643,6.05l-.7071.707A.9994.9994,0,0,1,18.2432,6.7568Z" style="fill:#f9ef78"/><path d="M27,30a4.09,4.09,0,0,1-2.8262-1.0986,2.2126,2.2126,0,0,0-3.1552,0,4.182,4.182,0,0,1-5.65,0A2.2058,2.2058,0,0,0,12.22,28.9a4.1742,4.1742,0,0,1-5.6465,0A2.1773,2.1773,0,0,0,5,28.24a1,1,0,0,1,0-2,4.0788,4.0788,0,0,1,2.8232,1.1,2.2046,2.2046,0,0,0,3.1465,0,4.178,4.178,0,0,1,5.6485-.0009,2.2094,2.2094,0,0,0,3.1523,0,4.183,4.183,0,0,1,5.6514,0A2.1825,2.1825,0,0,0,27,28a1,1,0,0,1,0,2Z" style="fill:#4294ff"/><path d="M27,26a4.09,4.09,0,0,1-2.8262-1.0986,2.2126,2.2126,0,0,0-3.1552,0,4.182,4.182,0,0,1-5.65,0A2.2058,2.2058,0,0,0,12.22,24.9a4.1742,4.1742,0,0,1-5.6465,0A2.1773,2.1773,0,0,0,5,24.24a1,1,0,0,1,0-2,4.0788,4.0788,0,0,1,2.8232,1.1,2.2046,2.2046,0,0,0,3.1465,0,4.178,4.178,0,0,1,5.6485-.0009,2.2094,2.2094,0,0,0,3.1523,0,4.183,4.183,0,0,1,5.6514,0A2.1825,2.1825,0,0,0,27,24a1,1,0,0,1,0,2Z" style="fill:#4294ff"/><path d="M14.42,12.32v.01a4.087,4.087,0,0,0-.71,1.52,1.0007,1.0007,0,0,1-.91.77,1.8979,1.8979,0,0,0-.88.28,1.0668,1.0668,0,0,1-.52.14,1.0065,1.0065,0,0,1-.65-.24,4.9941,4.9941,0,0,1,1.17-8.34A23.0345,23.0345,0,0,0,14.42,12.32Z" style="fill:#dbc949"/><path d="M28.3125,15.0459A5.0428,5.0428,0,0,0,23.4053,11a4.3057,4.3057,0,0,0-.6709.0439A6.2562,6.2562,0,0,0,17.74,8.6a2.79,2.79,0,0,0-.331.0127,6.2194,6.2194,0,0,0-5.45,4.1211,3.9421,3.9421,0,0,0-1.0244.4209,2.04,2.04,0,0,0-.3594.2178,4.2217,4.2217,0,0,0-1.6846,4.2988A4.2876,4.2876,0,0,0,13.14,21H23.4a4.9846,4.9846,0,0,0,3.8428-1.8018A5.0347,5.0347,0,0,0,28.3125,15.0459Z" style="fill:#e6ecff"/><path d="M25.17,20.67A4.8356,4.8356,0,0,1,23.4,21H13.14a4.2889,4.2889,0,0,1-4.25-3.33,4.2333,4.2333,0,0,1,1.69-4.3,2.3332,2.3332,0,0,1,.35-.22,3.9879,3.9879,0,0,1,1.03-.42,6.275,6.275,0,0,1,1.44-2.29A19.21,19.21,0,0,0,25.17,20.67Z" style="fill:#b7c6e2"/></g></svg>