<svg xmlns="http://www.w3.org/2000/svg" viewBox="0 0 32 32"><title>Artboard-31</title><g id="Compass"><circle cx="16" cy="5" r="3" style="fill:#4294ff"/><circle cx="16" cy="18" r="12" style="fill:#e6ecff"/><path d="M21.92,13.39l-3,7a.9194.9194,0,0,1-.46.49.2506.2506,0,0,1-.07.04l-7,3A1.0457,1.0457,0,0,1,11,24a.9941.9941,0,0,1-.92-1.39l3-7a.2506.2506,0,0,1,.04-.07.9194.9194,0,0,1,.49-.46l7-3a.9964.9964,0,0,1,1.31,1.31Z" style="fill:#4294ff"/><path d="M21.92,13.39l-3,7a.9194.9194,0,0,1-.46.49l-5.34-5.34a.9194.9194,0,0,1,.49-.46l7-3a.9964.9964,0,0,1,1.31,1.31Z" style="fill:#376cfb"/></g></svg>